<svg height="340" viewBox="0 0 1500 340" width="1500" xmlns="http://www.w3.org/2000/svg" xmlns:xlink="http://www.w3.org/1999/xlink"><linearGradient id="a" gradientUnits="objectBoundingBox" x1="3.045" x2="-2.022" y1="1" y2="1"><stop offset="0" stop-color="#b6509e"/><stop offset=".483" stop-color="#7483b1"/><stop offset="1" stop-color="#2ebac6"/></linearGradient><linearGradient id="b" gradientUnits="objectBoundingBox" x1="2.354" x2="-4.232" y1="1" y2="1"><stop offset="0" stop-color="#b6509e"/><stop offset=".478" stop-color="#7583b1"/><stop offset="1" stop-color="#2ebac6"/></linearGradient><linearGradient id="c" gradientUnits="objectBoundingBox" x1="3.944" x2="-1.137" y1="1" y2="1"><stop offset="0" stop-color="#b6509e"/><stop offset=".512" stop-color="#7980b0"/><stop offset="1" stop-color="#2ebac6"/></linearGradient><linearGradient id="d" gradientUnits="objectBoundingBox" x1="4.97" x2="0" y1="1" y2=".963"><stop offset="0" stop-color="#b6509e"/><stop offset=".493" stop-color="#7880b0"/><stop offset="1" stop-color="#2ebac6"/></linearGradient><linearGradient id="e" gradientUnits="objectBoundingBox" x1="1" x2="-5.594" y1="1" y2="1"><stop offset="0" stop-color="#b6509e"/><stop offset=".468" stop-color="#7682b1"/><stop offset="1" stop-color="#2ebac6"/></linearGradient><clipPath id="f"><path d="m0 0h1500v340h-1500z"/></clipPath><g clip-path="url(#f)"><path d="m336.056 307.09-114.549-277.817a24.422 24.422 0 0 1 -1.407-7.881c0-6.474 1.97-11.541 5.629-15.481s8.725-5.911 15.198-5.911a20.528 20.528 0 0 1 11.821 3.941c3.659 2.533 6.192 6.192 8.162 10.415l108.919 271.905 108.92-271.906c1.97-4.222 4.5-7.881 8.162-10.415a20.529 20.529 0 0 1 11.821-3.94q9.71 0 15.2 5.911c3.659 3.941 5.629 9.007 5.629 15.481a24.421 24.421 0 0 1 -1.408 7.881l-114.553 277.817c-6.473 14.355-16.042 21.392-28.707 21.392h-10.129c-12.664 0-22.235-7.037-28.708-21.392z" fill="url(#a)" transform="translate(398.171 6)"/><path d="m347.61 318.586a20.373 20.373 0 0 1 -5.91-14.918v-281.476a21.494 21.494 0 0 1 5.91-15.2 19.551 19.551 0 0 1 14.916-6.192h186.037a18.485 18.485 0 0 1 14.072 5.911 18.92 18.92 0 0 1 5.911 14.074 17.887 17.887 0 0 1 -5.911 13.792 19.778 19.778 0 0 1 -14.072 5.63h-164.646v102.457h148.041a18.487 18.487 0 0 1 14.073 5.911 19.374 19.374 0 0 1 5.91 14.074 17.89 17.89 0 0 1 -5.91 13.792 19.78 19.78 0 0 1 -14.073 5.63h-148.041v103.02h164.646a18.485 18.485 0 0 1 14.072 5.909 18.92 18.92 0 0 1 5.911 14.074 17.887 17.887 0 0 1 -5.911 13.792 19.778 19.778 0 0 1 -14.072 5.63h-186.037a18.388 18.388 0 0 1 -14.916-5.91z" fill="url(#b)" transform="translate(618.81 7.453)"/><path d="m422.133 299.209-114.549-277.817c-6.473-14.355-16.042-21.392-28.707-21.392h-10.132c-12.665 0-22.234 7.037-28.707 21.392l-49.817 121.035h-37.713a20.662 20.662 0 0 0 -20.546 20.548v.281a20.662 20.662 0 0 0 20.546 20.544h20.264l-47.565 115.409a24.422 24.422 0 0 0 -1.407 7.881c0 6.474 1.97 11.541 5.629 15.481s8.725 5.911 15.2 5.911a20.528 20.528 0 0 0 11.821-3.941c3.659-2.533 6.192-6.192 8.162-10.415l52.347-130.326h36.025a20.662 20.662 0 0 0 20.545-20.548v-.563a20.662 20.662 0 0 0 -20.545-20.548h-19.42l40.247-99.924 108.919 271.91c1.97 4.222 4.5 7.881 8.162 10.415a20.528 20.528 0 0 0 11.821 3.941q9.71 0 15.2-5.911c3.659-3.941 5.629-9.007 5.629-15.481a18.657 18.657 0 0 0 -1.409-7.882z" fill="url(#c)" transform="translate(223.439 6)"/><path d="m300.533 299.209-114.549-277.817c-6.473-14.355-16.042-21.392-28.707-21.392h-10.132c-12.665 0-22.235 7.037-28.708 21.392l-49.816 121.035h-37.714a20.662 20.662 0 0 0 -20.546 20.548v.281a20.662 20.662 0 0 0 20.546 20.544h20.265l-47.565 115.409a24.422 24.422 0 0 0 -1.407 7.881c0 6.474 1.97 11.541 5.629 15.481s8.725 5.911 15.2 5.911a20.528 20.528 0 0 0 11.821-3.941c3.659-2.533 6.192-6.192 8.162-10.415l52.347-130.326h36.307a20.662 20.662 0 0 0 20.546-20.548v-.563a20.662 20.662 0 0 0 -20.546-20.548h-19.42l39.965-99.924 108.919 271.91c1.97 4.222 4.5 7.881 8.162 10.415a20.528 20.528 0 0 0 11.821 3.941q9.71 0 15.2-5.911c3.659-3.941 5.629-9.007 5.629-15.481a18.669 18.669 0 0 0 -1.409-7.882z" fill="url(#d)" transform="translate(2.8 6)"/><path d="m212.3 328.7a12.516 12.516 0 0 1 -12.5-12.5v-36.395a12.485 12.485 0 1 0 -24.971 0v17.271a12.485 12.485 0 0 1 -24.971 0v-17.271a12.489 12.489 0 1 0 -24.977 0v4.7a12.5 12.5 0 0 1 -25 0v-4.7a12.489 12.489 0 1 0 -24.977 0v17.271a12.485 12.485 0 0 1 -24.971 0v-17.271a12.485 12.485 0 1 0 -24.971 0v36.395a12.485 12.485 0 1 1 -24.962 0v-206.195a112.627 112.627 0 0 1 215.58-42.931 111.99 111.99 0 0 1 9.571 42.931.812.812 0 0 1 -.368.794v205.401a12.507 12.507 0 0 1 -12.483 12.5zm-112.548-185.926c-3.171 0-4.457 1.228-4.457 4.26 0 7.372 8.153 13.365 18.17 13.365s18.144-5.993 18.144-13.365c0-3.026-1.287-4.254-4.451-4.254a38.452 38.452 0 0 0 -5.048.512l-.158.026a59.474 59.474 0 0 1 -8.488.775 59.77 59.77 0 0 1 -8.507-.775 38.094 38.094 0 0 0 -5.205-.544zm54.366-60.681c-11.054 0-20.041 10.293-20.041 22.949s8.987 22.929 20.041 22.929c11.035 0 20.008-10.286 20.008-22.929s-8.974-22.948-20.008-22.948zm-83.091 0c-11.028 0-20.008 10.293-20.008 22.949s8.981 22.93 20.007 22.93 20.015-10.286 20.015-22.929-8.98-22.949-20.015-22.949z" fill="url(#e)" transform="translate(1269.849 6)"/></g></svg>