<?xml version="1.0" encoding="utf-8"?>
<!-- Generator: Adobe Illustrator 25.0.1, SVG Export Plug-In . SVG Version: 6.00 Build 0)  -->
<svg version="1.1" id="Layer_1" xmlns="http://www.w3.org/2000/svg" xmlns:xlink="http://www.w3.org/1999/xlink" x="0px" y="0px"
	 viewBox="0 0 400 700" style="enable-background:new 0 0 400 700;" xml:space="preserve">
<style type="text/css">
	.st0{fill:#FFFFFF;}
	.st1{fill:none;}
</style>
<g id="Group_4051">
	<path id="Path_2431" class="st0" d="M244.4,684.7l-36.9-89.4c-0.3-0.8-0.4-1.7-0.4-2.5c-0.1-1.8,0.6-3.6,1.8-5
		c1.3-1.3,3.1-2,4.9-1.9c1.4,0,2.7,0.5,3.8,1.3c1.2,0.9,2.1,2,2.6,3.3l35,87.5l35-87.5c0.6-1.3,1.5-2.5,2.6-3.3
		c1.1-0.8,2.4-1.3,3.8-1.3c1.8-0.1,3.6,0.6,4.9,1.9c1.2,1.4,1.9,3.2,1.8,5c0,0.9-0.2,1.7-0.5,2.5l-36.9,89.4
		c-2.1,4.6-5.2,6.9-9.2,6.9h-3.3C249.6,691.6,246.5,689.3,244.4,684.7z"/>
	<path id="Path_2432" class="st0" d="M319.1,688.8c-1.3-1.3-2-3-1.9-4.8v-90.6c0-1.8,0.6-3.6,1.9-4.9c1.2-1.3,3-2.1,4.8-2h59.9
		c1.7,0,3.4,0.7,4.5,1.9c1.2,1.2,1.9,2.8,1.9,4.5c0.1,1.7-0.6,3.3-1.9,4.4c-1.2,1.2-2.8,1.8-4.5,1.8h-53v33h47.6
		c1.7,0,3.4,0.7,4.5,1.9c1.2,1.2,1.9,2.8,1.9,4.5c0,1.7-0.6,3.3-1.9,4.4c-1.2,1.2-2.8,1.8-4.5,1.8h-47.6v33.2h53
		c1.7-0.1,3.4,0.6,4.5,1.9c1.2,1.2,1.9,2.8,1.9,4.5c0.1,1.7-0.6,3.3-1.9,4.4c-1.2,1.2-2.8,1.8-4.5,1.8h-59.9
		C322.1,690.9,320.3,690.2,319.1,688.8z"/>
	<path id="Path_2433" class="st0" d="M215.9,682.1L179,592.8c-2.1-4.6-5.2-6.9-9.2-6.9h-3.3c-4.1,0-7.1,2.3-9.2,6.9l-16,38.9h-12.1
		c-3.6,0-6.6,3-6.6,6.6v0.1c0,3.6,3,6.6,6.6,6.6h6.5l-15.3,37.1c-0.3,0.8-0.4,1.7-0.4,2.5c-0.1,1.8,0.6,3.6,1.8,5
		c1.3,1.3,3.1,2,4.9,1.9c1.4,0,2.7-0.5,3.8-1.3c1.2-0.9,2.1-2,2.6-3.3l16.8-42h11.6c3.6,0,6.6-3,6.6-6.6v-0.2c0-3.6-3-6.6-6.6-6.6
		h-6.2l12.9-32.2l35,87.5c0.6,1.3,1.5,2.5,2.6,3.3c1.1,0.8,2.4,1.3,3.8,1.3c1.8,0.1,3.6-0.6,4.9-1.9c1.2-1.4,1.9-3.2,1.8-5
		C216.3,683.8,216.2,682.9,215.9,682.1z"/>
	<path id="Path_2434" class="st0" d="M105.8,682.1l-36.8-89.4c-2.1-4.6-5.2-6.9-9.3-6.9h-3.3c-4.1,0-7.2,2.3-9.2,6.9l-16,38.9H19
		c-3.6,0-6.6,3-6.6,6.6v0.1c0,3.6,3,6.6,6.6,6.6h6.5l-15.3,37.1c-0.3,0.8-0.4,1.7-0.4,2.5c-0.1,1.8,0.6,3.6,1.8,5
		c1.3,1.3,3.1,2,4.9,1.9c1.4,0,2.7-0.5,3.8-1.3c1.2-0.9,2.1-2,2.6-3.3l16.8-42h11.7c3.6,0,6.6-3,6.6-6.6v-0.2c0-3.6-3-6.6-6.6-6.6
		h-6.3l12.9-32.2l35,87.5c0.6,1.3,1.5,2.5,2.6,3.3c1.1,0.8,2.4,1.3,3.8,1.3c1.8,0.1,3.6-0.6,4.9-1.9c1.2-1.4,1.9-3.2,1.8-5
		C106.3,683.8,106.1,682.9,105.8,682.1z"/>
</g>
<path id="Path_7142" class="st0" d="M390.1,194.9c-2-105-88.7-188.4-193.7-186.4C94.2,10.4,11.9,92.7,9.9,194.9c0,0.5-0.1,1-0.1,1.4
	v2.9l0,0V543c0.3,11.7,9.9,20.9,21.6,20.7c11.3-0.2,20.4-9.4,20.7-20.7v-61.5c0-11.7,9.5-21.1,21.1-21.1c11.7,0,21.1,9.5,21.1,21.1
	v29.1c0,11.7,9.5,21.1,21.1,21.1c11.7,0,21.1-9.5,21.1-21.1l0,0v-29.1c0-11.7,9.5-21.1,21.1-21.1l0,0c11.7,0,21.1,9.5,21.1,21.1v8
	c0.3,11.7,9.9,20.9,21.6,20.7c11.3-0.2,20.4-9.4,20.7-20.7v-8c0-11.7,9.5-21.1,21.1-21.1s21.1,9.5,21.1,21.1v29.1
	c0,11.7,9.5,21.1,21.1,21.1s21.1-9.5,21.1-21.1l0,0l0,0v-29.1c0-11.7,9.5-21.1,21.1-21.1l0,0c11.7,0,21.2,9.4,21.2,21.1l0,0V543
	c0,11.7,9.5,21.1,21.1,21.1s21.1-9.5,21.1-21.1l0,0V196.4C390.1,195.9,390.1,195.4,390.1,194.9z M129.9,225.3
	c-18.7,0-33.8-17.4-33.8-38.8s15.2-38.8,33.8-38.8s33.8,17.4,33.8,38.8S148.6,225.3,129.9,225.3L129.9,225.3z M201.5,280.1
	c-16.9,0-30.7-10.1-30.7-22.6s13.8-4.9,30.7-4.9s30.7-7.5,30.7,4.9S218.5,280.1,201.5,280.1L201.5,280.1z M270.1,225.3
	c-18.7,0-33.8-17.4-33.8-38.8s15.1-38.8,33.8-38.8s33.9,17.4,33.9,38.8S288.9,225.3,270.1,225.3L270.1,225.3z"/>
<ellipse id="Ellipse_598" class="st1" cx="129.9" cy="186.5" rx="33.8" ry="38.8"/>
<path id="Path_7143" class="st1" d="M201.5,252.6c-16.9,0-30.7-7.5-30.7,4.9c0,12.5,13.8,22.6,30.7,22.6s30.7-10.1,30.7-22.6
	S218.5,252.6,201.5,252.6z"/>
<ellipse id="Ellipse_599" class="st1" cx="270.1" cy="186.5" rx="33.8" ry="38.8"/>
</svg>
