<?xml version="1.0" encoding="utf-8"?>
<!-- Generator: Adobe Illustrator 25.0.1, SVG Export Plug-In . SVG Version: 6.00 Build 0)  -->
<svg version="1.1" id="Layer_1" xmlns="http://www.w3.org/2000/svg" xmlns:xlink="http://www.w3.org/1999/xlink" x="0px" y="0px"
	 viewBox="0 0 1000 220" style="enable-background:new 0 0 1000 220;" xml:space="preserve">
<style type="text/css">
	.st0{fill:#FFFFFF;}
	.st1{fill:none;}
</style>
<g id="Group_4051">
	<path id="Path_2431" class="st0" d="M478.8,203.2L404.1,21.9c-0.6-1.7-0.9-3.4-0.9-5.1c-0.1-3.7,1.2-7.3,3.7-10.1
		c2.6-2.7,6.2-4.1,9.9-3.8c2.8,0,5.5,0.9,7.7,2.6c2.4,1.7,4.2,4.1,5.3,6.8l71.1,177.4l71.1-177.4c1.1-2.7,3-5,5.3-6.8
		c2.3-1.6,5-2.5,7.8-2.6c3.7-0.2,7.3,1.2,9.9,3.8c2.5,2.8,3.8,6.4,3.7,10.1c0,1.8-0.3,3.5-0.9,5.1l-74.8,181.3
		c-4.2,9.4-10.5,14-18.7,14h-6.6C489.3,217.2,483,212.6,478.8,203.2z"/>
	<path id="Path_2432" class="st0" d="M630.3,211.6c-2.6-2.6-4-6.1-3.9-9.7V18.3c-0.1-3.7,1.3-7.2,3.9-9.9c2.5-2.7,6.1-4.1,9.7-4
		h121.4c3.5-0.1,6.8,1.3,9.2,3.9c2.5,2.4,3.9,5.7,3.8,9.2c0.1,3.4-1.3,6.7-3.8,9c-2.5,2.4-5.8,3.7-9.2,3.6H654v66.9h96.6
		c3.5-0.1,6.8,1.3,9.2,3.9c2.5,2.4,3.9,5.7,3.8,9.2c0.1,3.4-1.3,6.7-3.8,9c-2.4,2.4-5.8,3.7-9.2,3.7H654v67.2h107.4
		c3.5-0.1,6.8,1.3,9.2,3.9c2.5,2.4,3.9,5.7,3.9,9.2c0.1,3.4-1.3,6.7-3.9,9c-2.5,2.4-5.8,3.7-9.2,3.7H640.1
		C636.4,215.8,632.8,214.4,630.3,211.6z"/>
	<path id="Path_2433" class="st0" d="M421,198.1L346.3,16.8c-4.3-9.4-10.5-14-18.7-14h-6.6c-8.3,0-14.5,4.6-18.7,14l-32.5,79h-24.6
		c-7.4,0-13.4,6-13.4,13.4v0.2c0,7.4,6,13.4,13.4,13.4h13.2l-31,75.3c-0.6,1.7-0.9,3.4-0.9,5.1c-0.1,3.7,1.2,7.3,3.7,10.1
		c2.6,2.7,6.2,4.1,9.9,3.9c2.8,0,5.5-0.9,7.7-2.6c2.4-1.7,4.2-4.1,5.3-6.8l34.2-85h23.5c7.4-0.1,13.4-6.1,13.4-13.5V109
		c0-7.4-6-13.4-13.4-13.4h-12.7l26.3-65.2l71.1,177.4c1.1,2.7,3,5.1,5.3,6.8c2.2,1.6,4.9,2.5,7.7,2.6c3.7,0.2,7.3-1.2,9.9-3.9
		c2.5-2.8,3.8-6.4,3.7-10.1C422,201.4,421.7,199.7,421,198.1z"/>
	<path id="Path_2434" class="st0" d="M197.7,198.1L122.9,16.8c-4.2-9.4-10.5-14-18.7-14h-6.6c-8.3,0-14.5,4.6-18.7,14l-32.5,79H21.7
		c-7.4,0-13.4,6-13.4,13.4v0.2c0,7.4,6,13.4,13.4,13.4H35L4,198.1c-0.6,1.6-0.9,3.3-1,5.1c-0.2,3.7,1.2,7.3,3.7,10.1
		c2.6,2.7,6.2,4.1,9.9,3.9c2.8,0,5.5-0.9,7.7-2.6c2.4-1.7,4.2-4.1,5.3-6.8l34.2-85h23.7c7.4,0,13.4-6,13.4-13.4V109
		c0-7.4-6-13.4-13.4-13.4H74.8l26.1-65.2L172,207.8c1.1,2.7,3,5,5.3,6.8c2.2,1.6,4.9,2.5,7.7,2.6c3.7,0.2,7.3-1.2,9.9-3.9
		c2.5-2.8,3.8-6.4,3.7-10.1C198.7,201.4,198.4,199.7,197.7,198.1z"/>
</g>
<path id="Path_7142" class="st0" d="M973.5,74.9C972.7,34.5,939.3,2.5,899,3.3c-39.2,0.8-70.8,32.4-71.6,71.6c0,0.2,0,0.4,0,0.6v1.1
	l0,0v132.1c0.2,4.5,3.9,8,8.4,7.8c4.3-0.1,7.7-3.6,7.8-7.8v-23.6c0-4.5,3.6-8.1,8.1-8.1c4.5,0,8.1,3.6,8.1,8.1c0,0,0,0,0,0v11.2
	c0,4.5,3.6,8.1,8.1,8.1c4.5,0,8.1-3.6,8.1-8.1c0,0,0,0,0,0l0,0v-11.2c0-4.5,3.6-8.1,8.1-8.1l0,0c4.5,0,8.1,3.6,8.1,8.1v3.1
	c0,4.5,3.6,8.1,8.1,8.1c4.5,0,8.1-3.6,8.1-8.1c0,0,0,0,0,0v-3.1c0.2-4.5,3.9-8,8.4-7.8c4.3,0.1,7.7,3.6,7.8,7.8v11.2
	c0,4.5,3.6,8.1,8.1,8.1c4.5,0,8.1-3.6,8.1-8.1c0,0,0,0,0,0l0,0v-11.2c0-4.5,3.6-8.1,8.1-8.1l0,0c4.5,0,8.1,3.6,8.1,8.1v23.6
	c0,4.5,3.6,8.1,8.1,8.1c4.5,0,8.1-3.6,8.1-8.1V75.4C973.5,75.3,973.5,75.1,973.5,74.9z M873.5,86.6c-7.2,0-13-6.7-13-14.9
	s5.8-14.9,13-14.9s13,6.7,13,14.9S880.7,86.6,873.5,86.6z M901,107.6c-6.5,0-11.8-3.9-11.8-8.7S894.5,97,901,97s11.8-2.9,11.8,1.9
	S907.5,107.6,901,107.6z M927.4,86.6c-7.2,0-13-6.7-13-14.9s5.8-14.9,13-14.9s13,6.7,13,14.9S934.6,86.6,927.4,86.6z"/>
<ellipse id="Ellipse_598" class="st1" cx="873.5" cy="71.7" rx="13" ry="14.9"/>
<path id="Path_7143" class="st1" d="M901,97.1c-6.5,0-11.8-2.9-11.8,1.9s5.3,8.7,11.8,8.7s11.8-3.9,11.8-8.7S907.5,97.1,901,97.1z"
	/>
<ellipse id="Ellipse_599" class="st1" cx="927.4" cy="71.7" rx="13" ry="14.9"/>
</svg>
