<?xml version="1.0" encoding="utf-8"?>
<!-- Generator: Adobe Illustrator 25.0.1, SVG Export Plug-In . SVG Version: 6.00 Build 0)  -->
<svg version="1.1" id="Layer_1" xmlns="http://www.w3.org/2000/svg" xmlns:xlink="http://www.w3.org/1999/xlink" x="0px" y="0px"
	 viewBox="0 0 400 700" style="enable-background:new 0 0 400 700;" xml:space="preserve">
<style type="text/css">
	.st0{fill:url(#Path_2431_1_);}
	.st1{fill:url(#Path_2432_1_);}
	.st2{fill:url(#Path_2433_1_);}
	.st3{fill:url(#Path_2434_1_);}
	.st4{fill:url(#Path_7142_1_);}
	.st5{fill:none;}
</style>
<g id="Group_4051">
	
		<linearGradient id="Path_2431_1_" gradientUnits="userSpaceOnUse" x1="-1488.8387" y1="593.7376" x2="-1481.9888" y2="592.1376" gradientTransform="matrix(55.73 0 0 61.13 82985.1719 -35600.8242)">
		<stop  offset="0" style="stop-color:#31BAC6"/>
		<stop  offset="1" style="stop-color:#B6509E"/>
	</linearGradient>
	<path id="Path_2431" class="st0" d="M243.8,683.3l-36.9-89.4c-0.3-0.8-0.4-1.7-0.4-2.5c-0.1-1.8,0.6-3.6,1.8-5
		c1.3-1.3,3.1-2,4.9-1.9c1.4,0,2.7,0.5,3.8,1.3c1.2,0.9,2.1,2,2.6,3.4l35,87.5l35-87.5c0.6-1.3,1.5-2.5,2.6-3.4
		c1.1-0.8,2.4-1.2,3.8-1.3c1.8-0.1,3.6,0.6,4.9,1.9c1.2,1.4,1.9,3.2,1.8,5c0,0.9-0.2,1.7-0.5,2.5l-36.9,89.4
		c-2.1,4.6-5.2,6.9-9.2,6.9H253C248.9,690.2,245.8,687.9,243.8,683.3z"/>
	
		<linearGradient id="Path_2432_1_" gradientUnits="userSpaceOnUse" x1="-1481.9584" y1="594.3512" x2="-1472.9084" y2="592.7312" gradientTransform="matrix(42.21 0 0 60.24 62575.2617 -35081.7539)">
		<stop  offset="0" style="stop-color:#31BAC6"/>
		<stop  offset="1" style="stop-color:#B6509E"/>
	</linearGradient>
	<path id="Path_2432" class="st1" d="M318.5,687.5c-1.3-1.3-2-3-1.9-4.8v-90.6c0-1.8,0.7-3.6,1.9-4.9c1.2-1.3,3-2.1,4.8-2h59.9
		c1.7,0,3.4,0.6,4.5,1.9c1.2,1.2,1.9,2.8,1.9,4.5c0,1.7-0.6,3.3-1.9,4.4c-1.2,1.2-2.8,1.8-4.5,1.8h-53v33h47.6
		c1.7,0,3.4,0.7,4.5,1.9c1.2,1.2,1.9,2.8,1.9,4.5c0,1.7-0.7,3.3-1.9,4.4c-1.2,1.2-2.8,1.8-4.5,1.8h-47.6v33.2h53
		c1.7-0.1,3.4,0.6,4.5,1.9c1.2,1.2,1.9,2.8,1.9,4.5c0,1.7-0.6,3.3-1.9,4.4c-1.2,1.2-2.8,1.8-4.5,1.8h-59.9
		C321.4,689.5,319.7,688.8,318.5,687.5z"/>
	
		<linearGradient id="Path_2433_1_" gradientUnits="userSpaceOnUse" x1="-1488.0258" y1="593.4871" x2="-1481.1858" y2="591.8971" gradientTransform="matrix(55.78 0 0 61.13 83010.5078 -35596.9414)">
		<stop  offset="0" style="stop-color:#31BAC6"/>
		<stop  offset="1" style="stop-color:#B6509E"/>
	</linearGradient>
	<path id="Path_2433" class="st2" d="M215.2,680.8l-36.9-89.4c-2.1-4.6-5.2-6.9-9.2-6.9h-3.3c-4.1,0-7.2,2.3-9.2,6.9l-16,38.9h-12.2
		c-3.6,0-6.6,3-6.6,6.6v0.1c0,3.6,3,6.6,6.6,6.6h6.5l-15.3,37.1c-0.3,0.8-0.4,1.7-0.5,2.5c-0.1,1.8,0.6,3.6,1.8,5
		c1.3,1.3,3.1,2,4.9,1.9c1.4,0,2.7-0.5,3.8-1.3c1.2-0.9,2.1-2,2.6-3.4l16.8-41.9h11.6c3.6,0,6.6-3,6.6-6.6v-0.2c0-3.6-3-6.6-6.6-6.6
		h-6.3l13-32.2l35,87.5c0.6,1.3,1.5,2.5,2.6,3.3c1.1,0.8,2.4,1.2,3.8,1.3c1.8,0.1,3.6-0.6,4.9-1.9c1.2-1.4,1.9-3.2,1.8-5
		C215.7,682.4,215.5,681.6,215.2,680.8z"/>
	
		<linearGradient id="Path_2434_1_" gradientUnits="userSpaceOnUse" x1="-1486.9976" y1="593.0925" x2="-1480.1575" y2="591.4925" gradientTransform="matrix(55.78 0 0 61.13 82950.4219 -35600.0625)">
		<stop  offset="0" style="stop-color:#31BAC6"/>
		<stop  offset="1" style="stop-color:#B6509E"/>
	</linearGradient>
	<path id="Path_2434" class="st3" d="M105.1,680.8l-36.9-89.4c-2.1-4.6-5.2-6.9-9.2-6.9h-3.3c-4.1,0-7.2,2.3-9.2,6.9l-16,38.9H18.4
		c-3.6,0-6.6,3-6.6,6.6v0.1c0,3.6,3,6.6,6.6,6.6h6.5L9.6,680.8c-0.3,0.8-0.4,1.7-0.4,2.5c-0.1,1.8,0.6,3.6,1.8,5
		c1.3,1.3,3.1,2,4.9,1.9c1.4,0,2.7-0.5,3.8-1.3c1.2-0.9,2.1-2,2.6-3.3l16.8-41.9h11.7c3.7,0,6.6-3,6.6-6.7v-0.2c0-3.6-3-6.6-6.6-6.6
		h-6.3l12.9-32.2l35,87.5c0.6,1.3,1.5,2.5,2.6,3.3c1.1,0.8,2.4,1.3,3.8,1.3c1.8,0.1,3.6-0.6,4.9-1.9c1.2-1.4,1.9-3.2,1.8-5
		C105.6,682.4,105.4,681.6,105.1,680.8z"/>
</g>
<linearGradient id="Path_7142_1_" gradientUnits="userSpaceOnUse" x1="-1486.6423" y1="587.6264" x2="-1479.2424" y2="582.5564" gradientTransform="matrix(54.82 0 0 80.09 81493.3203 -46524.5859)">
	<stop  offset="0" style="stop-color:#30BAC6"/>
	<stop  offset="1" style="stop-color:#B6509E"/>
</linearGradient>
<path id="Path_7142" class="st4" d="M389.4,193.5c-2-105-88.7-188.4-193.7-186.4C93.5,9,11.2,91.4,9.3,193.5c0,0.5-0.1,1-0.1,1.4
	v2.9l0,0v343.7c0,11.7,9.5,21.1,21.1,21.1s21.1-9.5,21.1-21.1v-61.4c0-11.7,9.5-21.1,21.1-21.1s21.1,9.5,21.1,21.1l0,0v29.1
	c0.3,11.7,9.9,20.9,21.6,20.7c11.3-0.2,20.4-9.4,20.7-20.7l0,0v-29.1c0-11.7,9.5-21.1,21.1-21.1l0,0c11.7,0,21.1,9.5,21.1,21.1v8
	c0,11.7,9.5,21.1,21.1,21.1c11.7,0,21.1-9.5,21.1-21.1v-8c0.3-11.7,9.9-20.9,21.6-20.7c11.3,0.2,20.4,9.4,20.7,20.7v29.1
	c0,11.7,9.5,21.1,21.1,21.1S305,521,305,509.3l0,0l0,0v-29.1c0-11.7,9.5-21.1,21.1-21.1l0,0c11.7,0,21.1,9.5,21.1,21.1v61.4
	c0,11.7,9.5,21.1,21.1,21.1s21.1-9.5,21.1-21.1l0,0V195C389.5,194.5,389.5,194,389.4,193.5z M129.2,224c-18.7,0-33.8-17.3-33.8-38.8
	s15.2-38.8,33.8-38.8s33.8,17.3,33.8,38.8S147.9,224,129.2,224L129.2,224z M200.8,278.8c-17,0-30.7-10.1-30.7-22.6
	s13.8-4.9,30.7-4.9s30.7-7.5,30.7,4.9C231.5,268.6,217.8,278.7,200.8,278.8L200.8,278.8z M269.5,224c-18.7,0-33.8-17.3-33.8-38.8
	s15.1-38.8,33.8-38.8s33.8,17.3,33.8,38.8S288.1,224,269.5,224L269.5,224z"/>
<g id="Group_13464">
	<ellipse id="Ellipse_598" class="st5" cx="129.2" cy="185.2" rx="33.8" ry="38.8"/>
	<path id="Path_7143" class="st5" d="M200.9,251.2c-17,0-30.7-7.5-30.7,4.9s13.8,22.6,30.7,22.6s30.7-10.1,30.7-22.6
		S217.8,251.2,200.9,251.2z"/>
	<ellipse id="Ellipse_599" class="st5" cx="269.5" cy="185.2" rx="33.8" ry="38.8"/>
</g>
</svg>
