<svg width="557" height="200" viewBox="0 0 557 200" fill="none" xmlns="http://www.w3.org/2000/svg">
<g clip-path="url(#clip0_59_229)">
<path fill-rule="evenodd" clip-rule="evenodd" d="M390.521 100.492C390.521 118.076 403.844 133.248 421.405 133.248H465.517C483.101 133.248 496.4 118.076 496.4 100.492C496.4 82.9076 483.078 67.7352 465.517 67.7352H421.405C403.821 67.7352 390.521 82.9076 390.521 100.492ZM469.451 45C499.304 45 523.514 70.1469 523.514 100C523.514 129.853 499.304 155 469.451 155H417.682C387.829 155 363.618 129.853 363.618 100C363.618 70.1469 387.805 45 417.682 45H469.451Z" fill="black"/>
<path fill-rule="evenodd" clip-rule="evenodd" d="M206.322 46.8732V153.127H232.218V109.904H324.564V153.127H350.319V46.8732H324.4V88.4802H232.054V46.8732H206.322Z" fill="black"/>
<path fill-rule="evenodd" clip-rule="evenodd" d="M186.49 45.9365H89.0634C59.2103 45.9365 35 70.1468 35 100C35 129.853 59.2103 154.063 89.0634 154.063H190.705V127.582L164.223 98.8292H132.075L165.511 130.86H91.9434C74.1486 130.86 62.0434 116.905 62.0434 99.1102C62.0434 81.3154 74.1251 67.8288 91.9434 67.8288H186.49V45.9365Z" fill="black"/>
</g>
<defs>
<clipPath id="clip0_59_229">
<rect width="488.514" height="110" fill="white" transform="translate(35 45)"/>
</clipPath>
</defs>
</svg>
